<?xml version="1.0" standalone="no"?>
<!DOCTYPE svg PUBLIC "-//W3C//DTD SVG 20010904//EN"
 "http://www.w3.org/TR/2001/REC-SVG-20010904/DTD/svg10.dtd">
<svg version="1.0" xmlns="http://www.w3.org/2000/svg"
 width="300.000000pt" height="300.000000pt" viewBox="0 0 300.000000 300.000000"
 preserveAspectRatio="xMidYMid meet">
<metadata>
Created by potrace 1.11, written by Peter Selinger 2001-2013
</metadata>
<g transform="translate(0.000000,300.000000) scale(0.100000,-0.100000)"
fill="#000000" stroke="none">
<path d="M1258 2931 c-25 -16 -50 -37 -56 -47 -14 -25 -3 -54 22 -54 33 1 103
36 115 58 13 25 14 62 2 62 -5 0 -15 2 -23 5 -7 3 -34 -8 -60 -24z m82 -4 c0
-35 -68 -87 -115 -87 -30 0 -16 44 23 72 39 29 92 37 92 15z"/>
<path d="M1559 2886 c-127 -27 -290 -107 -373 -184 l-36 -32 0 27 c0 16 -13
52 -28 82 -55 110 -189 134 -304 55 l-38 -27 -25 27 c-13 14 -30 26 -37 26
-27 0 -58 -32 -68 -69 -8 -31 -18 -41 -59 -60 -39 -19 -52 -21 -70 -12 -12 7
-27 11 -34 10 -32 -4 -39 1 -33 27 4 15 3 23 -3 20 -5 -4 -12 2 -14 11 -4 17
-5 17 -6 1 -1 -12 -6 -15 -18 -11 -15 5 -16 4 -7 -8 7 -8 15 -29 19 -48 7 -31
8 -32 18 -15 10 17 12 16 20 -16 5 -19 10 -62 11 -95 1 -33 8 -70 14 -82 17
-31 15 -43 -9 -43 -43 0 -60 18 -55 58 5 30 4 32 -3 12 l-9 -25 -2 25 c-1 23
-2 23 -10 5 -7 -17 -9 -17 -9 -2 -1 9 -5 17 -11 17 -13 0 -13 -4 5 -46 8 -19
12 -49 10 -67 l-5 -32 12 28 c7 17 17 26 26 22 7 -3 20 -5 28 -5 8 0 14 -7 14
-15 0 -8 8 -19 17 -24 10 -5 26 -22 35 -38 l17 -29 -76 -13 c-42 -7 -86 -17
-97 -22 -13 -5 -4 -6 24 -1 67 10 279 5 325 -8 22 -7 72 -25 110 -42 39 -16
76 -32 84 -35 9 -4 12 -2 7 5 -12 19 -94 58 -173 81 -71 21 -89 36 -58 47 8 4
15 10 15 16 0 5 -5 6 -10 3 -6 -3 -10 -1 -10 5 0 6 10 8 25 4 17 -4 25 -2 25
6 0 18 109 4 131 -16 11 -9 19 -11 23 -5 4 5 -1 14 -10 19 -15 8 -15 12 0 39
8 17 12 34 8 38 -4 5 -2 5 4 2 7 -4 27 0 45 8 19 8 27 14 19 15 -8 0 -22 5
-30 10 -13 8 -12 11 5 25 20 16 20 16 -2 6 -30 -15 -38 -14 -24 3 9 11 9 15
-1 19 -8 4 -7 6 5 6 9 1 17 8 17 16 0 28 159 34 168 6 8 -23 31 -10 42 24 27
82 220 204 390 246 88 21 223 30 275 16 26 -6 27 -6 10 5 -29 17 -169 19 -246
4z m-839 -60 c0 -2 -7 -7 -16 -10 -8 -3 -12 -2 -9 4 6 10 25 14 25 6z m343
-46 c-10 -11 -19 -20 -21 -20 -1 0 2 9 8 20 6 11 15 20 20 20 6 0 2 -9 -7 -20z
m-170 -47 c-6 -14 -14 -16 -37 -7 -23 9 -9 24 18 22 15 -1 22 -7 19 -15z m47
-18 c0 -8 -7 -15 -15 -15 -16 0 -20 12 -8 23 11 12 23 8 23 -8z m123 6 c13 -2
7 -19 -10 -25 -9 -4 -20 -1 -25 6 -12 20 -10 27 10 23 9 -2 20 -4 25 -4z m-63
-26 c0 -9 -9 -15 -25 -15 -18 0 -23 4 -19 15 4 8 15 15 25 15 10 0 19 -7 19
-15z m-497 -20 c-3 -9 -8 -14 -10 -11 -3 3 -2 9 2 15 9 16 15 13 8 -4z m382
-6 c-4 -6 2 -13 14 -16 11 -3 18 -9 15 -14 -3 -5 -16 -1 -29 8 -15 12 -19 20
-11 25 15 11 18 10 11 -3z m180 -8 c-3 -6 -11 -11 -16 -11 -5 0 -4 6 3 14 14
16 24 13 13 -3z m-105 -26 c-7 -8 -17 -15 -23 -15 -6 0 -2 7 9 15 25 19 30 19
14 0z m130 -5 c8 -5 11 -12 7 -17 -5 -4 -11 -3 -15 3 -4 6 -14 14 -22 17 -13
5 -13 5 0 6 8 0 22 -3 30 -9z m-364 -195 c-1 -8 -5 -17 -8 -21 -5 -4 -4 16 1
34 3 9 9 -1 7 -13z m39 -13 c-3 -3 -11 0 -18 7 -9 10 -8 11 6 5 10 -3 15 -9
12 -12z m74 9 c7 -5 9 -11 5 -14 -5 -3 -15 1 -22 9 -14 16 -5 18 17 5z m-169
-51 c0 -5 -2 -10 -4 -10 -3 0 -8 5 -11 10 -3 6 -1 10 4 10 6 0 11 -4 11 -10z"/>
<path d="M1853 2847 c12 -13 24 -22 26 -20 6 4 -30 43 -40 43 -5 0 2 -10 14
-23z"/>
<path d="M1849 2789 l-24 -20 28 17 c15 9 27 18 27 20 0 8 -8 4 -31 -17z"/>
<path d="M1770 2760 c-21 -7 -21 -8 -5 -9 11 0 27 4 35 9 18 11 5 11 -30 0z"/>
<path d="M2438 2763 c7 -3 16 -2 19 1 4 3 -2 6 -13 5 -11 0 -14 -3 -6 -6z"/>
<path d="M2498 2763 c7 -3 16 -2 19 1 4 3 -2 6 -13 5 -11 0 -14 -3 -6 -6z"/>
<path d="M1680 2740 c-20 -6 -21 -8 -5 -8 11 0 31 4 45 8 20 6 21 8 5 8 -11 0
-31 -4 -45 -8z"/>
<path d="M1785 2739 c-14 -6 -9 -7 21 -3 50 6 168 -17 223 -45 51 -26 73 -60
69 -103 -4 -39 5 -39 -168 -9 -141 24 -160 25 -160 11 0 -5 9 -10 20 -10 28 0
120 -48 141 -74 16 -18 18 -19 19 -4 0 10 -17 29 -37 43 l-38 27 45 -7 c25 -3
76 -11 113 -17 76 -13 87 -8 87 45 0 68 -55 114 -171 142 -71 16 -134 18 -164
4z"/>
<path d="M2551 2734 c0 -11 3 -14 6 -6 3 7 2 16 -1 19 -3 4 -6 -2 -5 -13z"/>
<path d="M2398 2703 c6 -2 18 -2 25 0 6 3 1 5 -13 5 -14 0 -19 -2 -12 -5z"/>
<path d="M2483 2693 c9 -2 25 -2 35 0 9 3 1 5 -18 5 -19 0 -27 -2 -17 -5z"/>
<path d="M2650 2540 c-8 -5 -10 -10 -5 -10 6 0 17 5 25 10 8 5 11 10 5 10 -5
0 -17 -5 -25 -10z"/>
<path d="M2698 2533 c7 -3 16 -2 19 1 4 3 -2 6 -13 5 -11 0 -14 -3 -6 -6z"/>
<path d="M2615 2519 c-4 -6 -5 -12 -2 -15 2 -3 7 2 10 11 7 17 1 20 -8 4z"/>
<path d="M2720 2507 c0 -8 -8 -18 -17 -20 -17 -4 -17 -5 0 -6 18 -1 35 25 23
36 -3 4 -6 -1 -6 -10z"/>
<path d="M1799 2481 c26 -37 26 -41 -1 -42 -19 -1 -20 -2 -4 -6 30 -8 41 12
23 41 -12 18 -13 26 -4 29 6 3 2 6 -11 6 l-23 1 20 -29z"/>
<path d="M1863 2493 c9 -2 23 -2 30 0 6 3 -1 5 -18 5 -16 0 -22 -2 -12 -5z"/>
<path d="M1358 2479 c-108 -16 -174 -72 -209 -177 -16 -48 -6 -163 21 -237 11
-33 23 -67 26 -76 4 -11 -4 -20 -26 -29 -27 -11 -33 -11 -53 7 -87 76 -273
124 -397 101 -128 -23 -244 -116 -275 -220 -14 -47 -13 -58 5 -146 l20 -96
-22 -23 c-12 -13 -16 -23 -10 -23 6 0 19 11 28 25 16 24 16 31 0 101 -28 130
-17 186 52 258 105 109 239 140 417 95 80 -20 185 -72 191 -94 2 -5 -42 -39
-98 -75 -123 -79 -309 -258 -392 -378 -86 -123 -163 -264 -210 -383 l-42 -107
-38 23 c-45 27 -105 39 -138 26 -28 -10 -67 -79 -98 -171 -19 -53 -24 -95 -28
-229 -6 -233 20 -368 115 -572 l36 -79 525 0 524 0 -6 27 c-50 228 -51 485 -5
734 l11 55 107 -4 c144 -6 267 27 395 106 26 16 59 26 94 29 67 4 239 70 319
122 58 38 114 98 127 136 4 12 35 34 78 55 54 26 96 59 166 126 80 78 97 90
120 86 38 -7 250 -90 275 -107 12 -8 25 -15 29 -15 5 0 8 145 8 323 l0 322
-33 17 c-325 175 -403 196 -738 205 -228 6 -340 -2 -499 -37 -117 -26 -295
-88 -414 -144 -55 -25 -100 -45 -101 -44 -2 2 -13 32 -26 68 -19 51 -24 85
-24 156 0 88 1 93 35 143 44 65 88 87 207 102 70 9 119 9 204 0 127 -14 155
-9 47 7 -104 16 -234 21 -300 11z m1031 -848 c34 -26 23 -79 -20 -105 -62 -37
-134 -15 -123 37 13 72 91 108 143 68z m108 -238 c-4 -3 -1 -13 6 -22 11 -14
10 -14 -5 -2 -16 12 -16 31 -1 31 4 0 3 -3 0 -7z m-1055 -180 c25 -29 27 -47
8 -71 -36 -45 -110 -60 -132 -28 -28 41 22 116 77 116 18 0 39 -8 47 -17z
m862 -18 c-4 -8 -10 -12 -15 -9 -14 8 -10 24 6 24 9 0 12 -6 9 -15z m-39 -16
c5 -16 -1 -29 -23 -51 l-30 -30 -26 38 -26 39 42 12 c24 6 46 11 50 12 4 1 10
-9 13 -20z m-101 -45 c20 -44 20 -51 -2 -63 -15 -8 -25 0 -60 45 -23 30 -42
55 -42 57 0 1 20 1 44 -1 38 -3 45 -8 60 -38z m-98 -11 c15 -27 34 -53 42 -60
12 -10 9 -15 -22 -29 -19 -10 -37 -16 -38 -13 -2 2 -14 19 -27 38 -23 33 -23
34 -6 72 10 21 19 39 21 39 2 0 15 -21 30 -47z m-46 -106 c0 -4 -11 -13 -25
-19 -21 -9 -29 -8 -47 8 -21 19 -21 19 -14 0 8 -23 -8 -36 -43 -36 -21 0 -17
7 35 54 l59 54 17 -27 c10 -14 18 -29 18 -34z"/>
<path d="M2633 2483 c9 -2 23 -2 30 0 6 3 -1 5 -18 5 -16 0 -22 -2 -12 -5z"/>
<path d="M1748 2443 c7 -3 16 -2 19 1 4 3 -2 6 -13 5 -11 0 -14 -3 -6 -6z"/>
<path d="M1006 2365 c-3 -9 -6 -22 -5 -28 0 -7 5 -1 10 12 5 13 8 26 5 28 -2
2 -6 -3 -10 -12z"/>
<path d="M1515 2316 c-17 -12 -18 -18 -7 -40 22 -50 82 -26 82 33 0 16 -6 21
-28 21 -16 0 -37 -6 -47 -14z m65 -9 c0 -7 -6 -21 -13 -31 -11 -15 -17 -17
-35 -7 -25 13 -27 22 -10 39 16 16 58 15 58 -1z"/>
<path d="M300 2299 c-28 -11 -80 -58 -80 -71 0 -5 10 2 23 16 12 14 40 35 62
46 42 20 38 26 -5 9z"/>
<path d="M993 2270 c0 -25 2 -35 4 -22 2 12 2 32 0 45 -2 12 -4 2 -4 -23z"/>
<path d="M1031 2294 c0 -11 3 -14 6 -6 3 7 2 16 -1 19 -3 4 -6 -2 -5 -13z"/>
<path d="M340 2235 c-14 -8 -34 -14 -44 -15 -11 0 -16 -3 -12 -7 3 -4 -10 -23
-30 -44 -36 -37 -38 -59 -6 -59 9 0 24 5 32 10 11 7 6 8 -17 4 -18 -4 -33 -2
-33 3 0 16 53 61 110 92 30 17 48 31 40 30 -8 0 -26 -6 -40 -14z"/>
<path d="M233 2203 c9 -2 23 -2 30 0 6 3 -1 5 -18 5 -16 0 -22 -2 -12 -5z"/>
<path d="M393 2178 c-31 -12 -50 -25 -46 -31 4 -6 0 -8 -9 -5 -8 4 -21 2 -29
-4 -11 -8 -10 -9 4 -4 9 3 -8 -20 -38 -51 -102 -102 -149 -228 -149 -393 1
-103 22 -222 45 -245 5 -5 2 10 -7 35 -25 68 -31 267 -9 350 36 141 115 251
222 308 112 60 120 80 16 40z"/>
<path d="M328 1595 c4 -46 -6 -57 -28 -30 -23 28 -30 15 -28 -57 l2 -73 3 63
c2 34 8 62 13 62 6 0 10 -4 10 -10 0 -5 9 -10 20 -10 16 0 20 7 20 30 l0 30
20 -20 c11 -11 26 -20 33 -19 6 0 2 5 -10 11 -12 6 -27 23 -34 39 -17 42 -25
36 -21 -16z"/>
<path d="M343 1473 c-15 -37 -8 -93 14 -114 53 -54 100 35 52 102 -23 32 -56
38 -66 12z m53 -28 c16 -24 12 -85 -6 -85 -21 0 -47 67 -36 95 8 22 23 18 42
-10z"/>
<path d="M194 1413 c11 -13 27 -23 36 -23 18 0 40 19 40 35 0 5 -5 2 -11 -7
-5 -10 -17 -18 -26 -18 -9 0 -26 8 -37 18 -21 17 -21 17 -2 -5z"/>
<path d="M2730 1306 c0 -5 230 -143 254 -152 9 -3 16 -1 16 5 0 6 -5 11 -10
11 -6 0 -27 10 -48 23 -58 36 -212 119 -212 113z"/>
<path d="M2575 1020 c22 -24 45 -49 50 -56 51 -60 370 -373 373 -365 3 10
-319 337 -423 429 l-40 36 40 -44z"/>
<path d="M2226 887 c3 -10 9 -15 12 -12 3 3 0 11 -7 18 -10 9 -11 8 -5 -6z"/>
<path d="M2256 837 c3 -10 9 -15 12 -12 3 3 0 11 -7 18 -10 9 -11 8 -5 -6z"/>
<path d="M1861 814 c0 -11 3 -14 6 -6 3 7 2 16 -1 19 -3 4 -6 -2 -5 -13z"/>
<path d="M1875 755 c28 -202 165 -533 286 -693 61 -81 65 -62 4 23 -93 131
-202 376 -262 590 -18 66 -31 102 -28 80z"/>
<path d="M2290 771 c0 -6 4 -13 10 -16 6 -3 7 1 4 9 -7 18 -14 21 -14 7z"/>
<path d="M1502 675 c-3 -157 29 -340 89 -520 28 -85 55 -155 60 -155 12 0 14
-7 -31 121 -71 200 -97 329 -110 539 l-7 115 -1 -100z"/>
<path d="M2310 736 c0 -11 60 -110 140 -231 37 -55 89 -138 115 -185 71 -125
197 -322 203 -316 2 3 -22 47 -55 98 -33 51 -85 135 -114 186 -30 51 -95 155
-144 230 -50 75 -103 157 -118 182 -15 25 -27 41 -27 36z"/>
</g>
</svg>
